Coordinates
version=1
nRows=12
nColumns=42
inDegrees=yes

Units are S.I. units (second, meters, Newtons, ...)
If the header above contains a line with 'inDegrees', this indicates whether rotational values are in degrees (yes) or radians (no).

endheader
time	pelvis_tilt	pelvis_list	pelvis_rotation	pelvis_tx	pelvis_ty	pelvis_tz	hip_flexion_r	hip_adduction_r	hip_rotation_r	knee_angle_r	knee_adduction_r	knee_angle_r_beta	ankle_angle_r	subtalar_angle_r	mtp_angle_r	hip_flexion_l	hip_adduction_l	hip_rotation_l	knee_angle_l	knee_adduction_l	knee_angle_l_beta	ankle_angle_l	subtalar_angle_l	mtp_angle_l	lumbar_extension	lumbar_bending	lumbar_rotation	arm_flex_r	arm_add_r	arm_rot_r	elbow_flex_r	pro_sup_r	wrist_flex_r	wrist_dev_r	arm_flex_l	arm_add_l	arm_rot_l	elbow_flex_l	pro_sup_l	wrist_flex_l	wrist_dev_l
      1.68000000	     14.89974250	     -5.45286849	      0.08731233	     -1.06434585	      0.90456853	      0.03929872	    -20.49113822	      4.90591550	    -37.35647660	     30.68364489	     -6.96296115	      0.53553063	     25.31746780	     38.79581747	     -7.56688151	     19.98634502	     -7.19011120	    -13.41141289	     31.52327231	    -10.19606838	      0.55018489	     16.06055504	     16.36627873	     -7.56688151	    -34.21589126	     -0.21397304	     -0.05017883	     14.95338723	    -28.87067546	      4.45764014	     81.66820407	     90.00000001	      0.00000000	      0.00000000	     -2.81888301	     -7.31701372	    -16.57406454	     34.17579351	     90.00000001	      0.00000000	      0.00000000
      1.69000000	     14.84901544	     -5.41462497	      0.04618958	     -1.05470694	      0.90400761	      0.03771525	    -21.00837032	      4.65831221	    -37.10975517	     30.79581271	     -7.05194991	      0.53748833	     24.79312974	     38.81368327	     -7.56541090	     19.79087074	     -6.88992978	    -13.53904207	     32.28612660	    -10.61184844	      0.56349921	     16.22984524	     17.19309630	     -7.56541090	    -34.08610024	     -0.20965942	      0.01320922	     14.55452324	    -28.85117602	      3.97136542	     82.35235216	     90.00000001	      0.00000000	      0.00000000	     -2.79991366	     -7.37036767	    -16.58153374	     34.28073076	     90.00000001	      0.00000000	      0.00000000
      1.70000000	     14.77746836	     -5.27767016	      0.07552809	     -1.04505548	      0.90353702	      0.03599020	    -21.52580024	      4.29668736	    -36.87695158	     30.94441239	     -7.00220028	      0.54008188	     24.53953706	     38.84543568	     -7.56498398	     19.62922404	     -6.50281245	    -13.19440396	     33.16180578	    -10.65603185	      0.57878270	     16.01995438	     17.54890721	     -7.56498398	    -33.93579964	     -0.27928278	     -0.14660740	     14.33289211	    -28.80317731	      3.81059517	     82.70037429	     90.00000001	      0.00000000	      0.00000000	     -2.78108352	     -7.48220599	    -16.61068526	     34.33476068	     90.00000001	      0.00000000	      0.00000000
      1.71000000	     14.69315270	     -5.14814130	      0.14368519	     -1.03531081	      0.90313727	      0.03401161	    -22.02430600	      3.94097907	    -36.67462253	     31.08410962	     -6.93364268	      0.54252006	     23.97407443	     38.85440655	     -7.56426072	     19.51924928	     -6.02116065	    -12.75097408	     34.04995147	    -10.86825419	      0.59428376	     15.82716758	     17.87015744	     -7.56426072	    -33.80279840	     -0.29777298	     -0.24616246	     13.88437501	    -28.71715700	      3.40477447	     83.14360107	     90.00000001	      0.00000000	      0.00000000	     -2.72040926	     -7.56411110	    -16.61298339	     34.46655141	     90.00000001	      0.00000000	      0.00000000
      1.72000000	     14.62707096	     -4.95862221	      0.13525369	     -1.02551531	      0.90295880	      0.03212988	    -22.49931976	      3.54878639	    -36.42717742	     31.24125515	     -7.00738095	      0.54526276	     23.53716084	     38.87196159	     -7.56391205	     19.35710832	     -5.54443603	    -12.23976358	     34.94273102	    -10.88523855	      0.60986571	     15.56422031	     18.08773444	     -7.56391205	    -33.68861751	     -0.41421939	     -0.31076364	     13.48156846	    -28.56949556	      3.19376159	     83.33050827	     90.00000001	      0.00000000	      0.00000000	     -2.59540834	     -7.61932514	    -16.60321337	     34.54986669	     90.00000001	      0.00000000	      0.00000000
      1.73000000	     14.54934356	     -4.75067063	      0.22434786	     -1.01564591	      0.90282963	      0.02996688	    -22.95869505	      3.07666336	    -36.28643555	     31.48754638	     -6.88700609	      0.54956136	     22.64901733	     38.86559735	     -7.56334296	     19.25077579	     -5.01431920	    -11.58958671	     35.87944328	    -10.88091356	      0.62621442	     15.23301483	     18.04737842	     -7.56334296	    -33.59531259	     -0.50182314	     -0.42580376	     12.88255104	    -28.35282509	      2.71174689	     83.60293015	     90.00000001	      0.00000000	      0.00000000	     -2.42559995	     -7.70952690	    -16.55193487	     34.65529077	     90.00000001	      0.00000000	      0.00000000
      1.74000000	     14.49028286	     -4.43766864	      0.31777686	     -1.00596320	      0.90305859	      0.02763099	    -23.32152718	      2.52212894	    -36.30562364	     31.79743765	     -6.98634222	      0.55496998	     21.20958104	     38.87649679	     -7.55986165	     18.92265602	     -4.24612218	     -9.96818934	     36.58234842	    -10.39232580	      0.63848243	     14.53532347	     15.96755370	     -7.55986165	    -33.57158281	     -0.67252580	     -0.53257756	     12.25974750	    -28.09126537	      2.17894236	     83.71034945	     90.00000001	      0.00000000	      0.00000000	     -2.15789299	     -7.85695690	    -16.14382115	     34.67892211	     90.00000001	      0.00000000	      0.00000000
      1.75000000	     14.41160712	     -4.13690864	      0.29052485	     -0.99608449	      0.90322697	      0.02544070	    -23.56905838	      1.89572720	    -36.27699287	     32.35224502	     -7.12565511	      0.56465320	     20.01659355	     38.83686794	     -7.55894579	     18.69776012	     -3.68931017	     -9.40580115	     37.35609458	    -10.24877542	      0.65198685	     14.22095222	     15.54460126	     -7.55894579	    -33.51171048	     -0.88104846	     -0.57836603	     11.65197119	    -27.80257083	      1.72031216	     83.67472642	     90.00000001	      0.00000000	      0.00000000	     -1.89904998	     -7.89675456	    -16.12324571	     34.72883820	     90.00000001	      0.00000000	      0.00000000
      1.76000000	     14.38552068	     -3.70629716	      0.31157116	     -0.98634861	      0.90379995	      0.02317983	    -23.76413937	      1.15232613	    -36.50529368	     33.01950396	     -7.42540660	      0.57629906	     18.54024477	     38.83608094	     -7.55569499	     18.19635355	     -2.93685379	     -8.05215518	     37.84580873	     -9.59437397	      0.66053397	     13.47905574	     13.20466985	     -7.55569499	    -33.55255411	     -1.21552815	     -0.72819879	     11.01866266	    -27.43112478	      1.43574071	     83.45068597	     90.00000001	      0.00000000	      0.00000000	     -1.53236507	     -8.04532428	    -15.92302302	     34.68625214	     90.00000001	      0.00000000	      0.00000000
      1.77000000	     14.38164818	     -3.45063817	      0.23010305	     -0.97649858	      0.90434488	      0.02121445	    -23.88118699	      0.62474546	    -36.45233505	     33.81349925	     -7.83962469	      0.59015689	     17.40581414	     38.70979049	     -7.55528517	     17.79003483	     -2.62110194	     -7.90219260	     38.47143222	     -9.34964951	      0.67145316	     13.37515217	     13.03430185	     -7.55528517	    -33.60155042	     -1.42175095	     -0.72592163	     10.44058065	    -27.07865882	      1.21792863	     83.06963414	     90.00000001	      0.00000000	      0.00000000	     -1.18785173	     -8.10695092	    -15.89376638	     34.73642251	     90.00000001	      0.00000000	      0.00000000
      1.78000000	     14.29199320	     -2.97615537	      0.17961656	     -0.96682801	      0.90499246	      0.01894622	    -23.63503999	     -0.31910010	    -37.15797692	     35.04857950	     -8.55896835	      0.61171311	     14.79906569	     38.72373204	     -7.55368638	     17.25749596	     -1.91394377	     -7.53192321	     38.61701544	     -9.13417620	      0.67399407	     12.96736189	     11.65073327	     -7.55368638	    -33.60792176	     -1.81340407	     -0.82314957	      9.72422708	    -26.62425223	      0.84070613	     82.66819675	     90.00000001	      0.00000000	      0.00000000	     -0.70610435	     -8.23287534	    -15.71977563	     34.62884604	     90.00000001	      0.00000000	      0.00000000
      1.79000000	     14.35421648	     -2.81028033	      0.16564758	     -0.95732608	      0.90592291	      0.01698009	    -23.53585252	     -0.61185273	    -37.01061892	     36.08851533	     -9.33872713	      0.62986341	     13.74585739	     38.46956600	     -7.55342908	     16.65211887	     -1.70104756	     -7.51361661	     38.95967105	     -8.99955147	      0.67997454	     13.04211045	     11.51270029	     -7.55342908	    -33.80845094	     -1.89923246	     -0.84834140	      9.19369648	    -26.23647018	      0.76423373	     82.05152611	     90.00000001	      0.00000000	      0.00000000	     -0.23366662	     -8.30543190	    -15.67186529	     34.74900924	     90.00000001	      0.00000000	      0.00000000
